<svg width="692" height="136" viewBox="0 0 692 136" fill="none" xmlns="http://www.w3.org/2000/svg">
<path d="M68 16L77.1429 27.5254L52.2093 61.1063L91.3536 46.7819L106.188 68L68 120L58.8571 108.475L83.7907 74.8937L44.6464 89.2181L29.8125 68L68 16Z" fill="#38C657"/>
<path d="M660.52 38.055C678.648 38.055 692.122 51.7618 691.999 70.2844L642.882 77.4465C645.699 84.8556 652.558 89.548 660.643 89.548C668.849 89.548 675.219 85.1025 678.281 78.1874L690.162 82.2624C685.385 93.4995 674.239 101.526 660.52 101.526C642.514 101.526 628.796 87.5722 628.796 69.7905C628.796 51.8852 642.392 38.055 660.52 38.055ZM660.52 49.9095C650.109 49.9095 642.882 56.8246 641.657 66.8269L677.178 61.8875C674.484 53.4905 668.727 49.9095 660.52 49.9095Z" fill="#38C657"/>
<path d="M605.899 39.4133H618.515V94.8577C618.515 111.281 606.878 124 588.505 124C575.032 124 564.62 118.073 560.088 108.688L571.48 103.131C574.419 108.194 580.176 112.269 588.505 112.269C599.407 112.269 605.531 104.736 605.531 94.6107V90.5358C601.244 96.3395 594.63 100.044 585.933 100.044C569.03 100.044 557.026 86.3373 557.026 69.0495C557.026 51.7617 569.03 38.1784 585.933 38.1784C594.875 38.1784 601.612 42.0064 605.899 48.0572V39.4133ZM588.138 87.9426C597.937 87.9426 605.899 80.2866 605.899 69.0495C605.899 57.0715 597.202 50.2799 588.138 50.2799C577.849 50.2799 570.377 58.4298 570.377 69.0495C570.377 79.7926 577.849 87.9426 588.138 87.9426Z" fill="#38C657"/>
<path d="M550.733 38.1784C552.325 38.1784 553.795 38.3019 554.407 38.4254V50.4034C552.815 50.1564 551.345 50.0329 549.875 50.0329C540.321 50.0329 534.074 56.4541 534.074 67.5677V100.168H521.091V39.4133H533.829V48.5511C536.647 42.2534 542.893 38.1784 550.733 38.1784Z" fill="#38C657"/>
<path d="M495.268 39.4133H507.884V100.168H495.268V91.0297C490.858 97.3274 484.122 101.402 475.058 101.402C458.032 101.402 445.783 87.4487 445.783 69.7904C445.783 52.1321 458.032 38.1784 475.058 38.1784C484.122 38.1784 490.858 42.2534 495.268 48.5511V39.4133ZM477.14 89.3009C487.061 89.3009 495.268 81.3979 495.268 69.7904C495.268 57.3185 486.449 50.2799 477.14 50.2799C466.851 50.2799 459.134 58.6768 459.134 69.7904C459.134 80.904 466.851 89.3009 477.14 89.3009Z" fill="#38C657"/>
<path d="M414.194 38.1787C427.055 38.1787 436.487 45.9582 436.487 60.5293V100.168H423.503V63.6164C423.503 53.9847 419.584 50.0332 411.254 50.0332C401.7 50.0332 394.841 56.2074 394.841 66.9505V100.168H381.858V13.7288H394.841V48.1809C398.761 41.5127 405.987 38.1787 414.194 38.1787Z" fill="#38C657"/>
<path d="M332.575 101.773C307.71 101.773 289.092 82.1391 289.092 56.8248C289.092 31.5105 307.71 12 332.575 12C351.438 12 366.381 22.6197 372.628 38.9196L359.767 43.2415C355.112 32.3749 345.313 24.9659 332.697 24.9659C316.284 24.9659 303.3 38.3022 303.3 56.8248C303.3 75.4709 316.284 88.8072 332.697 88.8072C345.436 88.8072 355.112 81.2747 359.767 70.5316L372.628 74.8535C366.381 91.1534 351.683 101.773 332.575 101.773Z" fill="#38C657"/>
<path d="M258.207 101.773C247.55 101.773 236.404 97.6981 231.627 87.3254L240.936 80.9042C243.753 85.967 250.49 90.4125 258.329 90.4125C265.311 90.4125 269.108 87.3254 269.108 82.8799C269.108 78.805 265.189 76.8292 258.819 75.2239L252.572 73.6186C238.976 70.0376 233.832 64.1103 233.832 56.3308C233.832 46.699 241.794 37.8082 256.982 37.8082C269.843 37.8082 278.05 44.4763 281.234 50.6505L271.19 56.9482C268.496 52.3793 263.229 48.9218 256.492 48.9218C250.123 48.9218 247.183 52.0089 247.183 55.5899C247.183 59.5414 251.225 61.1467 257.594 62.752L264.331 64.4808C276.702 67.5679 282.092 73.1247 282.092 82.0155C282.092 93.9935 271.803 101.773 258.207 101.773Z" fill="#38C657"/>
<path d="M215.035 39.4135H228.876L210.38 100.168H186.373L168 39.4135H181.719L198.377 95.9693L215.035 39.4135Z" fill="#38C657"/>
</svg>
